<svg id="LOGO" xmlns="http://www.w3.org/2000/svg" width="276" height="93" viewBox="0 0 276 93">
  <defs>
    <style>
      .cls-1 {
        fill: #ff6f00;
      }
    </style>
  </defs>
  <title>hollandcom</title>
  <path class="cls-1" d="M34,69.46s0,.05,0,.1,0,.1,0,.1,0,0,0-.1,0-.1,0-.1m-1.09,1.93s-.07,0-.09,0a.08.08,0,0,0,0,.11s.06,0,.09,0,0-.1,0-.11m-3.28,8.84s-.06.06-.06.14,0,.15,0,.15,0,0,0-.06,0,0,0,0,.05,0,.05-.09,0-.09-.05-.09h0s0-.09,0-.09m0-.32s-.05,0-.05.11,0,.11,0,.11.05,0,.05-.1,0-.12,0-.12M2.49,72c0-.06-.07-.08-.09-.13V72ZM2,67.17s-.11,0-.17,0a.44.44,0,0,0-.16-.08H1.54l0,.21.11-.08a.3.3,0,0,0,.14.06l.22,0Zm-.19-.5.1.07v-.12l-.07,0ZM.65,68.59l.3.09,0-.07-.36-.13Zm.36.27-.08,0-.09,0,.1.09Zm0-1.13,0,0,.06,0,.07,0Zm.24.93-.22,0,.1.11.49.17.15-.07-.12-.06Zm.6,0-.09,0,0,.06.05,0Zm-.08-.48.08-.08-.08,0-.09,0Zm.11.72-.09,0,.1.09L2,68.92Zm.07.62-.08,0-.09,0,.1.09Zm-.14.16-.08-.05-.09,0,.09.09Zm.05.48.07-.06-.19,0,0,.06Zm-.22.77.08-.08-.09,0-.08,0Zm-.1-.43.05.08.09-.08-.12-.07Zm-.05-.19.1,0-.06-.12-.1,0ZM1.23,70l.34.11,0-.06-.39-.16Zm.3-.42-.09-.05-.09,0,.1.09Zm-.13-.13.08-.09-.08,0-.09,0Zm0-1.25.06,0,.06,0-.08,0Zm.22-.26-.36-.11v.11l.3.07Zm.13-.4.07,0-.06,0-.08,0Zm.22.42h-.2l.16.08.49.17.1,0-.12-.07Zm0,2.5.27.12,0-.06-.34-.17Zm.1.93.08-.08-.08,0-.09,0Zm.33-1.07c0-.07-.06,0-.11,0s.07.07.11.11Zm-.16-1.71-.09,0-.08,0,.09.09Zm-.1-.18.08,0,0,0-.09,0Zm.08,1-.22,0,.1.11ZM2,69.23l.06,0,.07-.06-.09,0Zm0,.9-.09,0,.1.09.07-.08Zm.22-1.62.07-.05-.08,0,0,0Zm.22.56-.43,0c.18.06.26.22.43,0m-.08.2-.08,0,0,0,.06,0Zm.07.27-.19,0,0,.1h.2Zm-.18,1.27.06,0-.08-.05,0,.05Zm-.09.33.08-.09-.08,0-.09,0Zm-.12.36.09.09.08-.08-.08-.05Zm0,.25-.08,0,.09.1.08-.09ZM2,71.52l0,0,.06.05.06-.06Zm0-.6-.09,0,.1.09L2,71Zm-.21-.36.07,0,.07,0-.05,0Zm-.05.78,0,0,.06,0,.06,0ZM1.39,71c-.09,0,0,.11,0,.11l.27.12.05-.06A1.17,1.17,0,0,0,1.39,71m-.14-.8.08-.08L1.22,70l0,.09Zm-.11.68-.09,0,.1.09.08-.09Zm0-.87.09-.09-.11-.07,0,.06Zm-.15.53-.09,0,.09.09L1,70.59Zm-.14,0-.42-.18,0,.1.36.15Zm0-.69,0-.07-.34-.17,0,.11Zm-.7.26-.11,0v.11h.1Zm0-.52.07-.09-.08,0-.08,0Zm.24,0-.09,0,.1.1.08-.09Zm.12-2.28.07,0-.09-.05,0,.05ZM1,69.32l-.47-.18s-.15,0-.16,0,.23.13.23.13l.49.17,0-.08ZM.7,67.73l.07,0-.09-.05,0,.05ZM1,66.45l.08-.09-.09,0-.09,0Zm.29.54a.35.35,0,0,0-.15,0A.61.61,0,0,0,1,67.2l0,.06.16-.1s.08.17.13.26.24.06.24.06l0-.11-.2-.16Zm.35-.45-.36-.12,0,.1.29.09Zm-.22-.29.08-.08-.08,0-.09,0Zm.21-.34.07-.06-.09,0,0,0Zm.13.44.08-.09-.09,0-.08,0Zm.2-.28L2.06,66l-.08,0-.09,0Zm.1.36.08-.08-.09,0-.08,0Zm.2,0-.1.06H2.05v0l-.12.07.19.21,0-.19.14,0,.07-.17Zm.05-.33.08-.08-.09,0-.08,0Zm0,.73.08-.08-.09,0-.08,0Zm.1-.21,0,.11.23.17.05-.07Zm.06.26-.06.14.17,0Zm.28-.22-.22-.14,0,.11.16.09ZM2.67,66l-.09,0,.09.09.08-.08Zm0-.31.07,0-.08,0,0,0Zm.17.08.07-.09-.08,0-.08,0Zm.25.65-.19-.05,0,.16.17.09Zm0,.39-.09,0,0,.06,0,0Zm0-.76,0,0,.06,0,.06,0Zm.09-.17-.09,0,.09.1.08-.09Zm.05-.12.08-.09-.08,0-.09,0Zm0,.67c.05,0,.1,0,.1,0v-.11l-.13,0s0,.1,0,.11m.43-.66-.08,0h0l-.07,0-.09,0,.1.09,0,0,.06,0Zm-.19.16-.08,0,.09.09L3.5,66Zm.11.53,0,0,0,.06.07-.06Zm.1-.88.06,0-.08-.05,0,.05Zm.13.53-.08-.05-.09,0,.09.09Zm.07-.28-.08,0,0,0,.06.05Zm0-.22.08-.08-.08-.05-.09,0Zm.25-.36.08-.09-.08,0-.09,0Zm0,.19.08-.08-.08-.05-.1,0Zm.26-.4L4.45,65l-.09,0-.08,0Zm.44.12a.12.12,0,0,1-.12.06s-.05-.12,0-.16a.12.12,0,0,1,.14,0,.52.52,0,0,1,0,.13m-.33,1.36a.39.39,0,0,1,.14.11c.06.06,0,.1,0,.13s0,0-.07,0l-.06-.13s0-.06,0-.06m-.09-.44s-.06,0-.09,0-.09,0-.09-.07.12,0,.15,0,0,.11,0,.15M4,70.59s-.06,0-.09,0,0-.09,0-.13.11,0,.11,0,0,.06,0,.1m.25-4.14a.08.08,0,0,1,.1.06s0,.1-.13,0,0-.1,0-.11m-.65,3.28s-.06,0-.09,0,0-.09,0-.13.11,0,.11,0,0,.07,0,.1m-.32-1s-.08.06-.11.06-.06-.12,0-.16a.12.12,0,0,1,.14,0,.32.32,0,0,1,0,.13m-.2.45s.08.06.1.12.05.11,0,.15-.08-.07-.11-.09-.08-.14,0-.18M3,68.38s0,.1,0,.19,0,.13,0,.19-.07.18-.09.18,0-.11,0-.18a.94.94,0,0,1,.1-.31c0-.09-.1-.1,0-.14a.3.3,0,0,1,.09.07M3,70.6a.2.2,0,0,1-.13,0s-.07-.06-.08-.1.11-.07.16,0a.11.11,0,0,1,0,.12m0,1.31s0,0-.11,0-.08-.2-.12-.23-.11,0-.06-.09l.15.13s.14.12.14.17m21,3c0-.1-.15-.27-.19-.34s0-.12.08-.11a.3.3,0,0,1,.12.08c.05,0,0,.3.05.38a2,2,0,0,1,0,.47c0,.1.05.2,0,.22s-.08.09-.11,0,0-.14,0-.19,0-.44,0-.53m.21-1.33c.05,0,.08.2.07.3s0,.25,0,.35,0,.11.05.08.07,0,.08,0,.08,0,.11,0a.61.61,0,0,0,0-.3s0-.17.05-.18,0,.29,0,.34.09.17.1.22,0,.25-.06.44,0,.12-.12.17,0,.49,0,.55.09,0,.09,0,0,.25,0,.33,0,.28,0,.28,0-.06-.08-.12-.06-.37-.12-.43-.06-.09-.09,0,0,.2,0,.29-.07.05-.07.05a1.88,1.88,0,0,0,0-.4,1.44,1.44,0,0,1,0-.54c0-.06.13,0,.14-.13s-.11-.08-.12-.11,0-.17,0-.28a2.74,2.74,0,0,0-.09-.29,2.38,2.38,0,0,1,.06-.58m.1,3.1s.12-.07.16-.14-.07-.2,0-.28.06-.11.14,0a.63.63,0,0,1,.05.42.91.91,0,0,1-.11.46c-.11.2,0,.38-.09.4s0-.22-.06-.35,0-.44-.05-.49m5.58.15s-.09,0-.14-.1.14-.15.17-.19,0,0,0-.15h.05c.05,0,0,.19,0,.29s.07.11,0,.34-.15.2-.2.18.13-.34.1-.37m.64-2.17s.1-.09.18-.22,0-.27.09-.28,0,.32-.08.41-.15.14-.19.09m.53-1.24c0-.09.26-.08.31-.2s.14-.31.26-.31-.06.21-.1.29a1.06,1.06,0,0,1-.29.42c-.13.1-.12.28-.17.19s0-.29,0-.39m-6.3,1.05c-.06,0,.06,0,.1,0s0-.18.06-.26,0-.28.07-.28.1.3.12.38,0,.09,0,.13-.13,0-.17.08-.09,0-.15,0m-19-9.64c-.09.15-.24,0-.33.16-.17-.31-.36.21-.48-.11-.13.2-.26,0-.44,0a6,6,0,0,0-.16.72l-.14-.18c.11.11,0,.26-.12.28a.91.91,0,0,1-.08.18l-.05,0,0,.05.06,0,0,0c0,.07,0,.13.09.19L4,66.22s-.08,0-.12,0l.16.14c.15.23,0,.36,0,.59-.08,0-.19,0-.23-.09S4,66.7,4,66.62c-.27,0-.48.26-.65.41l-.19-.2L3,67.08,2.77,67l0,0c.21.19.61.18.84.41-.42-.08-.73.13-1.14-.09l.09.09c0,.09-.1.13-.12.2l0-.05c0-.08-.13-.14,0-.19l-.13-.14-.05.28H2v0H1.92c.06.33.35,0,.47.3.36-.25.28.34.54.35l-.11.06s-.11-.05-.09-.11l-.11,0a.33.33,0,0,0,.1.29l-.09.06s-.06,0-.1,0,0,0,0,0l-.07,0,0,0,.06.05,0-.05a.52.52,0,0,0,.08.2c0,.18-.21.15-.25.21h.06c.11.07.15.1.24,0l.09.11-.16.11c-.15.57.54.15.62.55-.06.24-.14,0-.25.23s.15-.1.15.09c.15,0,.25.08.37.13V70c0-.06.07,0,.11,0s.12.14.12.25h.11a.14.14,0,0,1,0,.11c-.16.09-.42,0-.53.07s-.41-.08-.72-.07c0,.05,0,.13,0,.15s-.11,0-.15-.06v.1c.19,0,.21.11.24.23l0,0,0,.05,0,0,.06,0c0,.08.07.13.21,0,.08.24.43.23.63.35s.14.11.16.2A1.06,1.06,0,0,1,3,71.25c-.26.32-.23-.32-.48-.08a.29.29,0,0,1,0,.48l-.12-.14,0,0c.06,0,0,.13,0,.19s.24-.07.28.06c-.25.3.23.31.22.58a1.27,1.27,0,0,0,.52.28,1,1,0,0,0,.86.36c.41,0,.22.53.66.46.23-.25.23.23.52.15.12.27.5,0,.58.29h.16c.1.07.28.06.23.23a1,1,0,0,1,.8.29A8,8,0,0,1,9.79,76c3,1.94,5.08,5,7,7.87.42.56.66,1.23,1.08,1.75.23.76.82,1.26,1.08,2a16.3,16.3,0,0,1,1,2,2.63,2.63,0,0,1,.8,1.3c.1.23,0,.51.22.69l.07-.06a2.27,2.27,0,0,0,.49,1l0,0,.23.27c.29-.43.34.34.44.19s.18-.15.33-.19.15.1.1.21c.05-.18.25-.17.36-.24a2.74,2.74,0,0,1,.6-1,.51.51,0,0,1,.25,0c.33-.25.86-.43,1.07-.84.46-.34.69-.68,1.16-1a.82.82,0,0,1,.36-.63,13.59,13.59,0,0,0,2-5.56c.33-.23-.09-.56.18-.85a3.65,3.65,0,0,0,.18.47,2.93,2.93,0,0,0,.24-1.4l-.08,0c-.09-.15.07-.19.14-.34,0,.07.1.14.08.25a5.81,5.81,0,0,0,.11-1.36c0-.12,0-.33.19-.28v-.09h0a.57.57,0,0,1,.06-.56c.34.1.09.44.22.67v-.09c.11-.22-.05-.38,0-.69l-.13.11c-.21-.16,0-.42-.07-.59l.13.09c.11-.07-.07-.11,0-.2s.07-.11.11-.08a2.34,2.34,0,0,1,.08-1.17s.11.07.09.11c.09-.12,0-.37.12-.48l.24.25c.09-.24,0-.53,0-.74s-.08-.27,0-.49c.42-.38-.11-.93.37-1.24.14.2,0,.46-.07.64s-.08.54.16.42c0-.15.05-.33-.07-.42.11-.07.08-.37.29-.19-.06-.2.06-.44,0-.68.11-.09,0-.4.21-.33.06,0,0,.14,0,.23l.1-.05a.28.28,0,0,0-.05-.24l-.05,0c-.13-.07-.06-.2-.07-.29.31-.23.31-.74.71-.9l-.05,0c.09-.09.1-.22.23-.23l.06.09,0,0c-.24.45-.49.84-.73,1.22,0,0,.09,0,.14.06.27-.3.31-.83.62-1.15A.37.37,0,0,0,32.3,73c-.19-.27.08-.48.09-.75.33-.07,0-.52.31-.69l-.05,0c-.08,0,0-.09-.1-.11.18-.17.15-.46.37-.56.1.14,0,.24-.05.37.24-.08,0-.3.23-.41l-.13,0c0-.08.05-.1.09-.17a.13.13,0,0,1,0,.09h0v-.15h0c0-.1,0-.28.2-.23s0,.14.1.2a.59.59,0,0,1,.06-.37.78.78,0,0,1,.11-.72l.11,0c-.1-.25.23-.19.25-.39s0-.4.11-.48l.06.09.24-.41c.13-.13,0-.44.17-.54,0-.36.3-.57.27-.92a1.79,1.79,0,0,0,.56-1l.06.08a.63.63,0,0,1,.16-.63l.06.11c-.25-.27.19-.48.24-.67-.11-.05-.19-.25,0-.33l.06.13c.09-.13,0-.28,0-.39.16-.13.23-.39.47-.4-.1-.16.06-.31.15-.44-.1-.16.12-.29.21-.39-.06-.26.19-.37.22-.63s.26-.47.4-.71c0-.07-.14.24-.25,0a2.37,2.37,0,0,1,.47-.71c-.07-.7.65-1,.69-1.73a10,10,0,0,1-1.62,1.95,24.81,24.81,0,0,0-6.07,5.4,35.59,35.59,0,0,0-5.65,9.61l-.09,0a9.37,9.37,0,0,1,0-1.4l.12-.24c.06.15,0,.33.07.48.05-.37.39-.53.34-1-.28-.1.08-.55,0-.82-.09.09-.09.19-.14.28a.11.11,0,0,1-.09,0c.11-.11,0-.34.15-.35,0-.07,0-.13,0-.18l-.09.09a4.7,4.7,0,0,1,0-1.54s0,.06.06,0v-.29c.18-.1.15-.36.26-.49a1.28,1.28,0,0,1,.16-.65l0,0c0-.26.13-.59.18-.88-.14-1,.22-1.94.15-3.09l.21-.28a6.93,6.93,0,0,0-.37-1.82c-.1-.36-.42-.65-.38-1-.38-.5-1.11-.94-1.21-1.61-.49,0-.76-.46-1-.76l-.09.08c-.55-.74-1.17-.39-1.82-.74-.27-.21-.37.2-.49.34-.29-.35-.34.29-.64.06-.09.26-.52-.06-.44.31-.77-.07-.49.8-1.13,1-1,.62-.35,1.74-.73,2.67.08,2.8-.56,5.4-.28,8.2,0,.22,0,.58-.12.79-.61-.19-.45-1-1-1.22a8.61,8.61,0,0,0-2.5-2.75l-.14,0c-.21-.32-.6-.35-.76-.69l-.13,0c-.27-.5-1.07-.28-1.24-.92-.3-.06-.49-.5-.83-.56,0-.31-.26-.08-.44-.21s-.18-.29-.1-.24l0,0c-.08-.08-.2-.45-.39-.21-.28,0-.27-.36-.42-.45l-.14.15c-.18-.19-.38-.43-.57-.35s-.46-.21-.47-.46a.13.13,0,0,0-.2,0c-.22-.06-.54,0-.6-.35l-.06.08c-.09-.09-.2-.14-.22-.25-.14.26-.35,0-.51.18-.11-.09-.1-.22-.2-.31-.21.14-.44,0-.55,0a.25.25,0,0,1-.15-.18M2.42,68.6l0,.05,0,0,.07,0ZM3,70,2.9,70l-.08,0h0l-.08,0,.09.1.06-.06,0,0Zm-.12-.2.07-.09-.08,0-.09,0Zm-.13.09.08,0-.06,0-.09,0Zm-.14-.32.09.09.08-.08-.09,0ZM21,11.34c.37-.18.25-.67.29-1s-.6-.23-.78-.09c0,.31-.45.45-.31.82s.5.26.8.31m3.33,3.87c-.14-.49-.64-.31-1-.36-.33.18-.23.56-.27.86s.53.45.9.42.32-.58.38-.92m.34,3.24c.09-.17.23-.37.13-.56-.08-.44-.57-.53-.94-.43a.82.82,0,0,0-.41.53c-.07.22-.08.54.13.66.41,0,.77.16,1.09-.2M33,11.81c-.11-.42-.74-.44-1-.21a1.9,1.9,0,0,0-.21,1c.13.33.54.28.8.22a.86.86,0,0,0,.42-1M33.72,9c.06-.33.29-.77,0-1-.15,0-.48.09-.6-.14a.22.22,0,0,0-.35.21c.43.45-.3,1.06.27,1.45A.88.88,0,0,0,33.72,9m5.48.58c-.13-.46-.66-.19-.87,0-.15.58-.71,1.39-.06,1.89,1.06.06.63-1.26.93-1.91M42.35,1c.33-.12.25-.49.26-.78S42.25,0,42,0c-.33.14-.23.47-.26.73s.36.28.58.26m2.08,6.85c-.33-.55-.6.16-.78.39a3,3,0,0,0,0,1.22.5.5,0,0,0,.48-.13c.36-.4.16-1,.29-1.48M45.8,2.11c-.07-.43,0-1.06-.59-1.17-.5.11-.54.66-.75,1a1.31,1.31,0,0,0,.26.75.56.56,0,0,0,.51.19c.37-.08.51-.46.57-.79m6.36,6.61c-.13-.7.05-1.5-.36-2.08s-1.32-.26-1.9-.19c-1.51.21-1.12,2-1.41,3.06-.59.66-.51,1.62-1.12,2.27a10.54,10.54,0,0,0-1.93,3.08c-.65.72-1.81.8-2.12,1.8A22.14,22.14,0,0,0,41.26,19c-.64,1-1.82,1.24-2.73,1.88-1.05.25-1.76,1.24-2.6,1.84-.34.29-.46.79-.86,1-.44-.5-1.11-.52-1.53-1-.1-1.29.88-2.76-.37-3.57-1.58-.79-.53-2.72-.55-4a1.18,1.18,0,0,0,.26-.91.55.55,0,0,0-.53-.35c-.94.26.09,1.12-.48,1.53a.72.72,0,0,1-.86.26c-.51.46-.73,1-1.2,1.55-.11,0-.26,0-.29.12-.1-.09-.1-.22-.14-.33a8.73,8.73,0,0,1,.46-2.65c.5-.67-.17-1.29-.25-1.92s.5-1.34.11-2a.89.89,0,0,0-.84-.2c-1,.66-.43,2.21-1.72,2.82,0,.43-.38.75-.2,1.23s.5.59.77.82c.44.47.23,1.07.25,1.64a2.81,2.81,0,0,1-.21,1.63c-.12.23.07.61-.22.8,0,.33-.28.51-.31.77-.65.61-1,1.37-1.57,2-.22.12-.16.49-.44.46-.19.47-.72.61-1.07.86-.15-.08,0-.22-.08-.33a.56.56,0,0,0-.54-.18c-.23.37-.21-.24-.47-.1-.35-.36-.38-.84-.67-1.22s.29-.91.43-1.38.83-.63.48-1.05a.26.26,0,0,0-.4.09,2.59,2.59,0,0,1-1,1.41A3.89,3.89,0,0,1,21,19.19c-.08-.41,0-.87-.2-1.07-.06-.31.12-.52.17-.76a2.49,2.49,0,0,0,.49-2c-.28.08-.55.22-.82.32a.51.51,0,0,1-.62-.22c-.45-.1-.5-.6-.92-.75a4.64,4.64,0,0,1,0-2.4s-.13,0-.15,0c-.27-.47,0-1,.16-1.43-.1-.42.14-1,0-1.44s.18-.71.07-1.11A.71.71,0,0,0,18.78,8a.75.75,0,0,0-.67.33c-.16.45.33.66.53,1,.5.69-.32,1.19-.39,1.82-.09.32-.47.35-.64.54-.75.21-1.21,1-1.56,1.63-.42-.21.13-.52.1-.81H16c-.14.1-.17.34-.38.31a12.18,12.18,0,0,0-1.58,2.3c-1.08,1.16-1.51,2.78-2.38,4.12C11,20.9,10.29,22.5,9.56,24.13A9.83,9.83,0,0,0,8.7,28.4a10.51,10.51,0,0,1,0,2.31c0,.19-.26.28-.23.48-.22.19-.06.56-.28.66-.66.26-.43,1-.75,1.55l-.22.18a.36.36,0,0,1-.48-.14,2.44,2.44,0,0,0,0,.65c-.18.23-.09.57-.07.83.2.33-.1.93.19,1.29-.19.34,0,.78-.11,1.18a5.34,5.34,0,0,0,0,1.44c-.09.06,0,.23-.18.23A10.23,10.23,0,0,0,8,44.25c0,.33.32.58.31.92A8.19,8.19,0,0,0,9,47.23c1.1,2.15.89,4.81,3,6.53a18.49,18.49,0,0,0,3.44,2.67,10.81,10.81,0,0,0,2.24.43c.46-.2.93.12,1.34.09-.14-.2.29-.38,0-.57.4-.4.82,0,1.24-.3.55,0,1.27-.07,1.71.34-.31.45.27.73.48,1.09l1.3,0A12.18,12.18,0,0,0,30,56a16,16,0,0,0,6.19-3.93,7.35,7.35,0,0,0,1.19-1.31,25.36,25.36,0,0,0,4.32-5.24,11,11,0,0,1,1.38-2.1c1.15-.57.48-2.19,1.17-3.08.17-1,.9-1.67,1.17-2.58.48-.79-.07-1.6-.37-2.28.26-1.91,1.09-4.12-.15-5.81a3.36,3.36,0,0,1,.25-1.53,3.52,3.52,0,0,0,.61-2.69c0-.74-.91-1.16-1-1.91-.36-.88-.41-1.86-.73-2.77a5.11,5.11,0,0,1,.79-3.2,17.53,17.53,0,0,0,1.35-2,9.8,9.8,0,0,0,2.28-3.15c0-.85,1-1.16,1.21-1.89s.92-.76,1.54-.84a1.27,1.27,0,0,0,.91-1M132.41,64c-.19.39-.37,1.08-.95,1-1.11.1-2-.64-2.94-.93-1.18-.15-1.93-1.31-2.7-2.15a1.19,1.19,0,0,1,.71-1.13c1,.17,1.8-.67,2.54-1.22a10,10,0,0,1,2.6-1.78c.24-.06.36.14.55.22.31.38,0,1,.22,1.4-.11.45.14.77,0,1.2.16.35,0,.85.11,1.2.54.74-.07,1.42-.18,2.15m10.88-.9a9.69,9.69,0,0,0,0-1.79c.18-.12,0-.39.19-.52s.13-.62-.06-.82a.51.51,0,0,1,.13-.38c0-.12,0-.26-.05-.35,0-.93-.59-1.71-.28-2.73,0-.48-.51-.8-.58-1.28s-.22-.71-.31-1.07c-.36-.18-.24-.57-.53-.79a2.48,2.48,0,0,0-1.46-1.82c-.15-.1-.26,0-.39-.13-.33-.25-.67-.69-1.12-.8A5.63,5.63,0,0,0,136.9,49a3.67,3.67,0,0,0-2-.22c-.13.08-.36-.06-.48.09a6.17,6.17,0,0,0-1.78.11,4.22,4.22,0,0,1-1.5.3c-.16.17-.46,0-.62.13a8.83,8.83,0,0,0-1.4.32c-.49-.1-.73.43-1.2.4-.61.5-1.35.67-1.93,1.22-.08.23-.46.07-.53.32-.79.11-1.14,1-1.86,1.1,0-.22-.21-.34-.11-.57.38-.6.13-1.33.07-2-.26-.55-.35-1.17-.61-1.72a10.15,10.15,0,0,0-1.14-3c.1-.22-.16-.29-.24-.45-.54-.11-.51-.87-1.12-.91-.36-.93-1.46-.48-2.21-.64-.06-.24-.3-.21-.47-.13-.49-.41-1.09,0-1.55.19a1.65,1.65,0,0,0-.82-.16c-.44.4-1.15.11-1.67.23-1,.52-2.28.13-3.31.47-.19-.25-.52-.15-.76-.29l.07-1.77a.84.84,0,0,0,.26-.75c.64-.39,0-1.42.73-1.72-.13-1,.6-1.53.69-2.37A41.94,41.94,0,0,1,113.3,33c.08-.21.45-.35.27-.66-.13-.1-.06-.29-.19-.4.07-.53-.42-.83-.51-1.29-.08-.24-.29-.4-.28-.66-.27-.34-.11-.81-.33-1.17-.29-.53-1-.19-1.4-.35-.14-.82-.33-1.78-1.12-2.16a8,8,0,0,1-1.66-.14,3.35,3.35,0,0,0-1.42-.16l-.1.06c-.91.06-1.5.95-2.33,1.25-1.16.68-1.36,2-1.74,3.17a2.9,2.9,0,0,0-1.11,1.22c0,.09,0,.2-.09.24,0,.22-.19.38-.28.51a7.8,7.8,0,0,0-.65,1.29,2.61,2.61,0,0,0-.51.9c.12.48-.42.66-.35,1.12-.17.12,0,.43-.19.58,0,.56-.49,1-.29,1.67,0,.11-.16.17-.12.3a4.19,4.19,0,0,0-.85,2.5c-.22.17-.11.52-.14.78-.13,0-.07.17-.09.28-.3.49-.15,1.19-.21,1.78l-.09.08a9,9,0,0,1-.22,1.78c-.16.26-.22.61-.54.71-.65-.11-1.06.44-1.77.22-.13.17-.43,0-.59.13a8.63,8.63,0,0,0-.91.21,3.54,3.54,0,0,0-1.36.23c-.9-.25-1.35.33-2.2.21-.15.17-.43,0-.59.13-.64-.08-1,.51-1.72.38-.14-.2-.4-.32-.41-.56-.56-.76-.27-1.69-.2-2.54a4.21,4.21,0,0,0-.42-1.6,2.45,2.45,0,0,1,0-1.71c.2-.1.06-.37.21-.47a3.46,3.46,0,0,0-.46-1.65c0-.3-.22-.53-.25-.81-.38-.35-.27-1-.83-1.19-.24,0-.51-.09-.71.06-.33-.18-.81,0-1.14-.21-.55.11-1.07.63-1.65.46a3.8,3.8,0,0,0-1.58,1.15c-.51.85-1.67,1.44-1.56,2.64a2.77,2.77,0,0,1-.23.8c.35,1.24-.78,2-.5,3.17a14.75,14.75,0,0,0-.2,3.22,1.47,1.47,0,0,1-.19,1.09c-.08.4-.47.44-.74.69-.13,0-.28-.1-.34,0-.41-.12-.62.2-1,.17l-.81.21c-.45-.15-.72.21-1.15.13-.35.1-.72.22-1.07.31a8,8,0,0,0-1.64.23,23.17,23.17,0,0,0-2.89.77c-.67,0-1.16.55-1.88.46-.15.16-.43,0-.58.13-.33-.05-.57.15-.86.2-1.18.38-2.67.13-3.76.88a8.47,8.47,0,0,0-3,.53c-.13.1-.34-.06-.46.11a.83.83,0,0,1-.56-.06c-.41.07-.83.12-1.24.2s-.66.13-1,.2c-.51-.17-.72.26-1.14,0-.27.19-.66.21-.79.58a7.11,7.11,0,0,1-.87.25c-.43-.1-.62.39-1,.6.05.2-.1.3-.17.43.11.46-.35.77-.56,1.14s-.22.6,0,.87c-.13.32.22.44.17.72.29.19,0,.62.21.86-.1.37.12.66,0,1a31.09,31.09,0,0,0,1.32,2.93c.56.91,1.58.82,2.46,1,.43.35.87-.07,1.33,0,.27-.15.63,0,1-.06.62-.3.67.72,1.24.81s1.05.06,1.5.32c.43,0,.73-.31,1.12-.4.35.07.75.31,1.06.12a6.74,6.74,0,0,0,1.92-.37c.89.58,1.49-.42,2.31-.39.45.08.78-.16,1.24-.16a3.85,3.85,0,0,1,1.39-.13c.33.1.68-.1,1,0,.33-.2.81-.06,1.19-.09.21.23.61,0,.87.16.15-.14.39-.11.61-.11s.54,0,.76-.12a27.3,27.3,0,0,1,3,.26c.17.18.32,0,.47.19a2.29,2.29,0,0,1,2.06,1.27c.23.23.11.59.4.8.07.63.74,1,.7,1.75a2.47,2.47,0,0,0,.24,1.16c.11.66.35,1.25.45,1.91-.13.91.57,1.74.5,2.66,1.16,1.45,3.19,1.73,3.84,3.64.93.67,2.11.38,3.23.4.91-.56,1-1.65,1.29-2.55.22-.34.56-.66.52-1.14.08-.13,0-.37.12-.47a2.93,2.93,0,0,1,.27-.82c.11-.15,0-.37.14-.47-.06-.58.2-1.26-.15-1.74a13.15,13.15,0,0,1,.19-1.91c-.45-.8.17-1.71-.1-2.59-.35-.69.07-1.48,0-2.19-.35-1,.79-1.47,1.27-2.18a25.21,25.21,0,0,0,3.47-2c.87-.08,1.49-.95,2.34-1,.3-.21.76-.06,1.15-.07.48.43.48,1.1.78,1.66-.1,1.13.47,2,.43,3.16.09.59.38,1.2.51,1.85.18.87.43,1.71.57,2.61.54.72.4,1.71,1.07,2.39a4.49,4.49,0,0,0,.54,2.53A23.9,23.9,0,0,0,103.2,77c.76,1.23,1.17,2.59,2,3.78a12,12,0,0,0,1.41,2.36c.48.41,1.07.58,1.57,1,0,.29.36.3.33.6a2.31,2.31,0,0,0,2.34,1.33c.25-.3.62.11.87-.17a2.51,2.51,0,0,0,1-.34c1.37-.67.5-2.46.81-3.68-.1-.28.06-.65-.1-.91,0-.48-.23-1-.17-1.36a17.07,17.07,0,0,0,.17-1.83c-.51-.89-1.67-.67-2.45-1.09a3.94,3.94,0,0,1-.82-1.53,2,2,0,0,1-.57-1.11c-.64-.93-.28-2.34-1.23-3.12,0-.3.11-.65.08-1-.55-.91-.43-2.09-.74-3.1A12.17,12.17,0,0,0,107,63.5a1.76,1.76,0,0,0,.33-1.58c-.31-.47-.18-1.1-.36-1.61s0-1.06.06-1.58c.79-.39.16-1.46,1-1.81,0-.56.6-.39.93-.58s.93-.57,1.56-.42c1.1,0,2-.65,3.11-.52,1,0,2.05.46,2.85-.3.16,0,.35.08.44-.07.88.18,1.36-.52,2.07-.8.48-.13.72.46,1.25.33a9.35,9.35,0,0,0,1.42.16,4.59,4.59,0,0,1-1.36,1.78,2.24,2.24,0,0,0-.44.75c0,.81-.65,1.29-.85,2,0,.09,0,.19-.1.24.11,1.24-.48,2.75.35,3.72.27,1.62,1.7,2.78,2.24,4.3.18.33.52.5.64.85,1.1.81,1,2.13,2.24,2.68a5.69,5.69,0,0,0,3.2,1.51,9.3,9.3,0,0,0,3.38.77c.52.15,1,.38,1.57.49.54-.07,1.05-.3,1.55-.38.16-.17.45,0,.61-.16.43.13.79-.24,1.27-.15a2.77,2.77,0,0,0,1.19.08.81.81,0,0,0,.6.18c.2-.21.45.08.63-.18a1.71,1.71,0,0,0,1.17-.63c.68-.82,1.94-1.5,2.07-2.68a1.86,1.86,0,0,0,.43-1.81,3.48,3.48,0,0,0,1.07-2.6,3,3,0,0,1,.17-1.26,1.2,1.2,0,0,0,0-1.09m10.76-.5c-.23-.86.27-1.63.08-2.5-.14-.16,0-.46-.12-.62-.11-1.44.07-2.7,0-4.18.16-1-.41-1.76-.12-2.76a.79.79,0,0,1-.09-.52c.27-.82-.07-1.62.09-2.51l-.08-.06c.15-.74-.18-1.3-.09-2-.2-.22-.07-.58-.1-.87.23-.16.15-.49.12-.71a15.48,15.48,0,0,1,0-2.36l-.06-.09c.07-1.43,0-2.94.22-4.33.25-.37.09-.89.21-1.3s0-.83.23-1.08a4.06,4.06,0,0,1,.7-2,3.06,3.06,0,0,0-.27-2c-.48-.66-.24-2-1.41-1.93-.23.25-.56-.09-.79.12a5.11,5.11,0,0,0-3.68,1.84c.06.2-.12.39-.17.58,0,.42-.33.63-.23,1.06-.19.19,0,.51-.2.67.13.42-.28.58-.14,1-.1.26-.17.52-.27.75l-.12,2c-.31,1.14,0,2.61-.45,3.65-.23,1.12.31,1.77.19,2.83a3.1,3.1,0,0,0-.09,1.29c.1.17,0,.48.11.63l-.1,2.88.08.06c-.14.35.2.58.12.86a4.2,4.2,0,0,1,.06,1.55c.16.36,0,.81.13,1.16-.1.37.13.59,0,1a9.3,9.3,0,0,0,.37,1.69c-.53,1.1-.12,2.44-.19,3.66.23.23,0,.61.12.83-.12.52.17,1,0,1.53a4.66,4.66,0,0,1,.06,1.55,9.18,9.18,0,0,1,.14,2.69c.21.18.07.52.17.75.05,1.07,1.21,1.18,1.84,1.74,1,.29,1.5-.67,2.33-.92.24-.43.82-.45,1-1,.09-.14,0-.37.12-.47,0-1.29.26-2.41.21-3.7-.14-.14,0-.35-.06-.53m9.3.66c-.1-.18.06-.44-.09-.57.19-1.85-.23-4,.62-5.57.4-.64,0-1.39,0-2.07.12-1.63.14-3.5.21-5.09.16-.12,0-.39.18-.52a6.46,6.46,0,0,0,0-1.59c.46-1.2,0-2.53.31-3.78.31-.71-.17-1.32-.1-2-.14-.39.05-1-.11-1.35a16.76,16.76,0,0,0,.17-2.46l-.08-.09.07-2.07c-.21-.27-.08-.7-.05-1a14,14,0,0,1-.13-3.56l-.09-.07.09-2.44a12.6,12.6,0,0,0-1.21-2.44,2.19,2.19,0,0,0-.38-.95c-.23-.25-.56-.22-.87-.27a3.18,3.18,0,0,0-2,.28c-.22.1-.52-.07-.72.1-1.22,0-1.05,1.49-1.55,2.26,0,.28-.21.49-.14.82a11,11,0,0,0-.18,1.5,2,2,0,0,1-.3,1.76A21.23,21.23,0,0,1,157,35c-.22.12-.1.43-.16.67a1.69,1.69,0,0,0,0,1,4.3,4.3,0,0,1-.11,1.2c-.33,1.47.41,2.52.1,4,.34.67-.26,1.17-.15,1.87a3.27,3.27,0,0,0,0,1.7c-.09.83.06,1.44-.08,2.24-.22.24-.13.65-.11,1a2.2,2.2,0,0,1-.1,1.39,7.56,7.56,0,0,0,.12,1.79c.3.54-.35,1-.15,1.59a6.81,6.81,0,0,1,.06,2.74c.19.13.05.38.15.54a5.09,5.09,0,0,0,.16,2.23,3.47,3.47,0,0,0,.3,2.56,5.43,5.43,0,0,0,0,1.28,4.65,4.65,0,0,0,.09,1.45c.31.88-.06,2.13.94,2.63.15.07.35,0,.45.16.83,0,1,1.11,1.76,1.18.92.47,1.12-1.09,2-.85.6.26.91-.56,1.54-.43.18-.16.46-.26.51-.52.22-1.17-.79-2-1-3.06m17.48-2.19c-.21.37-.16.87-.41,1.21-.88.56-2.07.32-3.1.5-.26.08-.48-.21-.67,0-1.21-.13-2.26.09-3.47,0-.33-.23-.72-.37-.94-.79a5.32,5.32,0,0,0-.25-1,3.58,3.58,0,0,0,.24-1.33c.15-.05,0-.28.14-.38a4.76,4.76,0,0,1,2.36-1.6,8.38,8.38,0,0,1,2.8-.1c.27.21.64.2.92.43,1.05.1,1.54.9,2.1,1.75a6.18,6.18,0,0,1,.28,1.29m7,1.91a4.52,4.52,0,0,0,.26-1.87l-.06-.07c0-.74-.57-1.26-.58-2,.34-.29.22-.78.49-1.1a5.67,5.67,0,0,0-.07-3,2.73,2.73,0,0,0-.24-1.7c0-.65-.24-1.2-.22-1.79,0-.37-.33-.66-.25-1.1-.15-.57-.41-1.08-.61-1.65a5.68,5.68,0,0,0-.66-1.42,13.27,13.27,0,0,0-2.4-2.88c-.34-.1-.56-.45-.93-.49a4.25,4.25,0,0,0-1.33-.66,9.68,9.68,0,0,0-2.06-1,28.08,28.08,0,0,0-4-.57c-.31.16-.78,0-1.11.11-.53-.1-.78.15-1.3,0-.68.13-1.54.08-2.08.56-.32.56-1,.71-1.55,1a5.12,5.12,0,0,0-.73,2.88c-.16.25-.19.58-.35.84a4.57,4.57,0,0,0,0,1c.18.53-.13,1.22.17,1.69a1.07,1.07,0,0,0,.72.2c.34.2.89-.06,1.25.1.41,0,.75.33,1.11.57.13,0,.26,0,.34.1.82.13,1.66.3,2.48.43a2.15,2.15,0,0,1,1,0,5.68,5.68,0,0,1,1.2.28c1,.1,1.52.84,2.35,1.2.41.52,1.06.67,1.34,1.29a1.61,1.61,0,0,1-.14,1c-.28.4-.83.15-1.2.16s-.57,0-.76-.16c-.54.16-.83-.3-1.28-.35-1-.1-2.28-.76-3.19,0-.26.07-.4-.19-.67-.13a1.75,1.75,0,0,1-.64.32c-.56,0-1,.44-1.6.42a5.07,5.07,0,0,0-1.88.61c0,.52-.67.46-.79.93a2.93,2.93,0,0,1-.67,1.09c-.25,1-1.27,1.83-.66,3-.59,1.11.34,2,0,3.29a.63.63,0,0,0-.11.56c-.22.17-.06.48,0,.72s-.1.43,0,.67a8.23,8.23,0,0,0,.47,1.62c.23.17.24.57.5.68a2.39,2.39,0,0,0,1.68,1.36,3.42,3.42,0,0,0,3.24.34c.79.32,1.49,0,2.3,0,.35-.09.66-.33,1-.4,1.66.49,2.57-1.13,3.79-1.7a2,2,0,0,1,1.68.26A3.51,3.51,0,0,0,183,69.38c.25-.17.61-.09.82-.32.52-.53,1.05-.93,1.12-1.68a10.51,10.51,0,0,1,2.1-1.2c.46-.35.29-1,.53-1.42,0-.63.27-1.1.25-1.75M263.34,74.3c.41-.94-.35-1.67-.82-2.38a11.67,11.67,0,0,0-1.22-1.75c-.75-1.48-1.92-2.85-2.54-4.4.05-.15-.05-.22-.16-.31-.21-.83-1.06-1.43-.94-2.39a2.64,2.64,0,0,1-.25-.66,4,4,0,0,0-.25-1.08c-.14-.46-.1-1-.43-1.41a9.1,9.1,0,0,1-.43-2c-.36-.64-.3-1.32-.73-2,0-.42-.32-.74-.11-1.16-.24-.12,0-.4-.18-.53-.08-.71-.39-1.33-.49-2,0-.28-.18-.46-.1-.76-.19-.16-.06-.46-.18-.64a8.16,8.16,0,0,1-.45-1.22,20.59,20.59,0,0,0-.59-3c-.34-.88,0-1.89-.49-2.72-.11-.63-.16-1.29-.22-1.92-.09-.38-.21-.58-.31-.93.32-1.1-.48-1.78-.23-2.84a3.44,3.44,0,0,0-.16-.88c-.21-.36-.06-.83-.07-1.25.24-.64.08-1.45.29-2.1.51-.88,1.44-1.57,1.53-2.61.4-.35.12-1,.33-1.43.18-.16,0-.49.17-.66s.08-.24-.05-.29a19.66,19.66,0,0,0,0-4.28,5.22,5.22,0,0,0-.23-1.31c.12-.37-.33-.54-.3-.88-.37-.43-.62-1-1.11-1.29-.23,0-.45.07-.63.06-.35.28-.82.22-1.24.31a7.55,7.55,0,0,1-2.5,1.22c-.75.54-.87,1.39-1.3,2.07l-.06,1.53c-.31.4-.22,1-.44,1.49.06,1.64-.47,3-.36,4.65l.07.09c0,.76.06,1.44,0,2.18.25.93,0,2,.25,2.93a5.46,5.46,0,0,0,.1,2.17,14.27,14.27,0,0,1,.17,2.38,3.79,3.79,0,0,1,.19,1.33c.11.21,0,.51.11.68-.14.26.24.56,0,.77,0,.19-.12.45.09.59.09.44.1.9.23,1.32a1.81,1.81,0,0,0,.22.77c0,.28.22.49.14.81s0,.87,0,1.31a2.36,2.36,0,0,1,.12.72c0,.48.31.84.18,1.36a2.27,2.27,0,0,1-.64,2.09l-.88.49c-1,1-2.33,1-3.21,2-.32-.12-.53.11-.79.17-.38.26-.84.32-1.21.54-.64,0-1,.6-1.69.57s-1.07.8-1.71,1.1c-1.28.07-2.19,1-3.1,1.86-.49.28-1-.13-1.52,0-.62-.33-1.47-.12-2.16-.28s-1.22,0-1.75-.1c-.53-.39-1.26-.65-1.45-1.36.15-.39.27-.95.77-1,1.72-.26,3-1.79,4.53-2.43.61,0,.63-.74,1-1,1-.43,2.56-.48,2.93-1.87a13.42,13.42,0,0,0,2.15-2.47,2.67,2.67,0,0,1,1-1.36c.37-.36.92-.41,1.2-1,0-.59.62-1,1-1.36s.28-1.09.77-1.48a2.14,2.14,0,0,0,1.16-1.51c0-.83.85-1.41.45-2.28s-.12-2.11-.52-3c-.32-.3-.85-.14-1.28-.2a1.93,1.93,0,0,0-2.12.36,4,4,0,0,0-2.21,1.21,2.36,2.36,0,0,0-2.23,1.15c-.33.33-.83.29-1.16.63s-.79.21-1.05.53c-.85,1-2.33,1.69-3,2.79-.29.8-1.08,1.14-1.56,1.82-.11.18,0,.33-.19.46A3.43,3.43,0,0,0,228,48.23c-.09.09,0,.27-.12.33,0,.15-.08.39.07.5,0,.69-.76.78-1.16,1.09-.16.26-.39.49-.53.77a35.52,35.52,0,0,0-2.14,2.91,5.85,5.85,0,0,0-1,2.17c-.22.19-.38.48-.75.4-.29.19-.67.09-.92.32-.41,1-1.6.64-2.14,1.65-.32.73-1.28.76-1.7,1.47-.85.34-1.73.66-2.61.93a1.55,1.55,0,0,1-1.57-.4,3.91,3.91,0,0,1-1-.89c-.56-.41-.54-1.06-1.05-1.5a4.91,4.91,0,0,1-.55-1.63c-.42-.82-.67-1.74-1-2.6-.08-.12.06-.33-.1-.42.15-.41-.21-.62-.2-1a21.07,21.07,0,0,0-.6-2.14c-.8-.61-.52-1.61-1-2.34s-.92-1.54-1.67-1.93c-.27-.1-.56-.2-.83-.28s-.32-.07-.44.05c-.39-.1-.63.16-1,.06a2.7,2.7,0,0,0-1.64.62c-.86.14-1.26,1.18-2.11,1.27a5,5,0,0,1-1.1.57,5.78,5.78,0,0,1-1.1-.31c-.36-.17-.3-.56-.41-.85s0-.7-.11-1c.36-1.12-.5-1.74-.95-2.57-.29-.42,0-1-.48-1.32a2.52,2.52,0,0,0-1.77-.11c-.89-.16-1.4.94-2.19,1.17a2.16,2.16,0,0,0-.4,1.58,2.22,2.22,0,0,1,0,.72c0,1-.15,2.33-.06,3.42.36.43-.19.74,0,1.2a2.77,2.77,0,0,0,0,1.31c.25.25,0,.67.18.94-.15.6.16,1,.25,1.56-.1,1.13.21,2.16.21,3.19.37,1.17,0,2.7.41,3.91a7.5,7.5,0,0,0,.43,2.7c0,.85.52,1.35.79,2.06.09,1,1.2.38,1.78.65l.11-.06c.62.06,1.22-.25,1.82,0,.26-.12.59-.22.58-.56a7.89,7.89,0,0,1,.14-.89,1.28,1.28,0,0,1,1-.84c1.53-.49.39-2,.43-2.93.1-.41.21-.69.32-1.1s.51-.35.79-.45c.55-.09.6-.7,1.07-.88.24-.51.78-.54,1.14-.92a.32.32,0,0,1,.28.12,4.57,4.57,0,0,1,.51,1c.3,1.43.39,2.93,1.24,4.14.52,1.16.61,2.6,1.8,3.33.64.2.43.91,1,1.24a6.54,6.54,0,0,0,2.09.92c.37.1.82,0,1.15.15a7.62,7.62,0,0,0,1.57-.47c.6-.32,1.52.12,2.09-.27.68-.18,1.1-1,1.8-1.14.91-.1.88-1.08,1.45-1.63.36-.11.68-.37,1.11-.31,1.53-.47,2.38-2.36,3.83-2.94.83-.27,1.36.38,2,.59a2.23,2.23,0,0,1,.66.22c.46,0,.82.38,1.17.63.66.29,1.28.66,1.92,1,.46,0,1,.06,1.39-.19,1-.32,1.49.68,2.48.5a2.63,2.63,0,0,0,1.62.12c.7.26,1.29.83,2,1.16.39-.12.8-.21,1.2-.33.56-.09,1-.54,1.54-.62.16-.08.41.06.54-.09.87.14,1.49-.41,2.18-.73.44-.77,1.38-.57,2.05-1,.15-.1.41,0,.52-.16.74,0,1.1-1,2-.67a6.58,6.58,0,0,1,3.24-.3A2.82,2.82,0,0,1,251.13,64a4,4,0,0,0,.22,1.51c.36.34.28.86.44,1.26.1.24.06.52.28.72.12.69.74,1.19.93,1.87a3.6,3.6,0,0,0,1.19,2.51c.11.53.73.91,1,1.32.49.78,1.11,1.52,1.59,2.28a2.3,2.3,0,0,0,2,.44c.51.39.94-.19,1.46-.08a3.1,3.1,0,0,1,2.15-.21c.61-.13.79-.8.89-1.32m12.51-17.75a7.75,7.75,0,0,0-.15-1.35l-.55-.65c-.34-.11-.59.12-.93.05-.29.14-.67,0-1,.07s-.58.18-.9.22c-.37.46-1,.48-1.44.81s-.24.83-.45,1.19A3.19,3.19,0,0,0,270,58c-.25.45-.33,1-.57,1.47s-.21,1.14-.32,1.73c-.35.84.19,1.53.27,2.3.07.31.13.62.21.92s.33.89.79.94c.9,1,1.64-.42,2.48-.52a.41.41,0,0,0,.26-.47c1-.7,1.21-1.79,1.77-2.73a21.13,21.13,0,0,0,1-2.58c-.11-.88.35-1.69,0-2.49"/>
</svg>
